<svg width="584" height="584" viewBox="0 0 584 584" fill="none" xmlns="http://www.w3.org/2000/svg">
<path d="M411.962 153.39L436.312 178.94C447.731 190.922 454.518 206.573 455.463 223.097C459.031 285.551 385.809 321.633 338.458 280.755L229.781 186.933C213.14 172.567 221.21 145.287 242.989 142.287L341.412 128.729C367.526 125.132 393.777 134.308 411.962 153.39Z" fill="#FFE5CF" stroke="#FF6600" stroke-width="64" stroke-linecap="round"/>
<path d="M129.038 394.61L104.688 369.06C93.2693 357.078 86.4816 341.427 85.5373 324.903C81.9685 262.449 155.191 226.367 202.542 267.245L311.219 361.067C327.86 375.433 319.79 402.713 298.011 405.713L199.588 419.271C173.474 422.868 147.223 413.692 129.038 394.61Z" fill="#557C56" stroke="#3C3D37" stroke-width="64" stroke-linecap="round"/>
</svg>
