<svg width="584" height="584" viewBox="0 0 584 584" fill="none" xmlns="http://www.w3.org/2000/svg">
<rect width="548" height="548" rx="141" fill="#FFE5CF"/>
<path d="M412.962 153.39L437.312 178.94C448.731 190.922 455.518 206.573 456.463 223.097C460.031 285.551 386.809 321.633 339.458 280.755L230.781 186.933C214.14 172.567 222.21 145.287 243.989 142.287L342.412 128.729C368.526 125.132 394.777 134.308 412.962 153.39Z" fill="#2A862C" stroke="#0B110B" stroke-width="64" stroke-linecap="round"/>
<path d="M129.038 394.61L104.688 369.06C93.2693 357.078 86.4816 341.427 85.5373 324.903C81.9685 262.449 155.191 226.367 202.542 267.245L311.219 361.067C327.86 375.433 319.79 402.713 298.011 405.713L199.588 419.271C173.474 422.868 147.223 413.692 129.038 394.61Z" fill="#FF6600" stroke="#0B110B" stroke-width="64" stroke-linecap="round"/>
</svg>
